<!-- <svg width="17" height="21" viewBox="0 0 17 21" fill="none" xmlns="http://www.w3.org/2000/svg"> -->
<svg width="22" height="22" viewBox="0 0 22 22" fill="none" xmlns="http://www.w3.org/2000/svg">
<path d="M15.578 11.3083C14.008 7.22827 8.41802 7.00827 9.76802 1.07827C9.86802 0.63827 9.39802 0.29827 9.01802 0.52827C5.38802 2.66827 2.77802 6.95827 4.96802 12.5783C5.14802 13.0383 4.60802 13.4683 4.21802 13.1683C2.40802 11.7983 2.21802 9.82827 2.37802 8.41827C2.43802 7.89827 1.75802 7.64827 1.46802 8.07827C0.788022 9.11827 0.0980225 10.7983 0.0980225 13.3283C0.478022 18.9283 5.20802 20.6483 6.90802 20.8683C9.33802 21.1783 11.968 20.7283 13.858 18.9983C15.938 17.0683 16.698 13.9883 15.578 11.3083ZM6.29802 16.3383C7.73802 15.9883 8.47802 14.9483 8.67802 14.0283C9.00802 12.5983 7.71802 11.1983 8.58802 8.93827C8.91802 10.8083 11.858 11.9783 11.858 14.0183C11.938 16.5483 9.19802 18.7183 6.29802 16.3383Z" fill="white"/>
</svg>
