<svg width="22" height="22" viewBox="0 0 22 22" fill="none" xmlns="http://www.w3.org/2000/svg">
<path d="M19.3194 10.0223V17.6787C19.3192 17.9188 19.2542 18.1544 19.1311 18.3606C19.008 18.5667 18.8315 18.7358 18.6202 18.8498C18.4287 18.9535 18.214 19.0064 17.9963 19.0035H14.0168C13.8411 19.0035 13.6726 18.9337 13.5484 18.8095C13.4241 18.6853 13.3543 18.5168 13.3543 18.3411V14.3657C13.3543 14.19 13.2846 14.0215 13.1603 13.8973C13.0361 13.7731 12.8676 13.7033 12.6919 13.7033H10.042C9.86634 13.7033 9.69784 13.7731 9.57361 13.8973C9.44937 14.0215 9.37958 14.19 9.37958 14.3657V18.3411C9.37958 18.5168 9.30978 18.6853 9.18555 18.8095C9.06131 18.9337 8.89281 19.0035 8.71711 19.0035H4.74541C4.55757 19.004 4.37181 18.9643 4.20056 18.8872C4.02931 18.81 3.87653 18.6971 3.75246 18.5561C3.53466 18.3042 3.41652 17.9814 3.42032 17.6484V10.0222C3.42046 9.83761 3.4591 9.65508 3.53377 9.48626C3.60844 9.31744 3.7175 9.16605 3.85398 9.04176L10.478 3.01891C10.7213 2.79603 11.0393 2.67239 11.3693 2.67236C11.6993 2.67233 12.0173 2.79591 12.2606 3.01874L18.8858 9.04185C19.0223 9.16616 19.1313 9.31756 19.206 9.48637C19.2806 9.65518 19.3192 9.83771 19.3194 10.0223Z" fill="white"/>
</svg>